<svg viewBox="0 0 97 35" fill="none" xmlns="http://www.w3.org/2000/svg"><path d="M12.56 0v3.83c-1.06 0-1.88.15-2.47.45-.6.3-.85.88-.77 1.76l.54 5.14a5.4 5.4 0 0 1-.43 3.15 4.2 4.2 0 0 1-1.93 1.85c-.86.41-1.88.71-3.05.88 1.24.19 2.3.5 3.15.9a3.96 3.96 0 0 1 1.88 1.82c.4.79.52 1.85.38 3.17l-.54 5.14c-.08.88.18 1.46.77 1.75.59.3 1.41.46 2.47.46v3.83c-3.2 0-5.45-.49-6.75-1.46-1.29-.97-1.81-2.62-1.57-4.97l.53-4.98c.09-.88-.06-1.57-.46-2.07-.38-.5-.95-.85-1.7-1.04a9.8 9.8 0 0 0-2.61-.32v-4.45c.97 0 1.84-.1 2.6-.3a3.2 3.2 0 0 0 1.71-1.06c.4-.5.55-1.2.46-2.08l-.53-4.94c-.25-2.4.27-4.06 1.57-5.01 1.3-.97 3.55-1.45 6.75-1.45Z" fill="url(#a)"/><path d="M27.63 4.51c2.88 0 5.05 1.11 6.5 3.34 1.48 2.22 2.22 5.31 2.22 9.28 0 3.98-.74 7.1-2.21 9.35-1.46 2.24-3.63 3.36-6.5 3.36-2.9 0-5.09-1.12-6.55-3.36-1.45-2.25-2.17-5.37-2.17-9.35 0-3.97.72-7.06 2.17-9.28 1.46-2.23 3.64-3.34 6.54-3.34Zm0 3.99c-1.23 0-2.12.66-2.7 1.98-.56 1.31-.85 3.53-.85 6.65a55.4 55.4 0 0 0 .21 4.84l5.88-12.3a2.16 2.16 0 0 0-1.04-.91 3.8 3.8 0 0 0-1.5-.26Zm3.52 8.63c0-1.33-.03-2.46-.09-3.37l-5.55 11.47c.26.24.56.41.9.5.36.1.77.14 1.22.14.83 0 1.5-.27 2-.83.53-.56.9-1.48 1.15-2.75.24-1.3.37-3 .37-5.16Z" fill="url(#b)"/><path d="M48.5 4.51c2.88 0 5.04 1.11 6.5 3.34 1.48 2.22 2.21 5.31 2.21 9.28 0 3.98-.73 7.1-2.2 9.35-1.47 2.24-3.63 3.36-6.51 3.36-2.9 0-5.08-1.12-6.54-3.36-1.45-2.25-2.17-5.37-2.17-9.35 0-3.97.72-7.06 2.17-9.28 1.46-2.23 3.64-3.34 6.54-3.34Zm0 3.99c-1.23 0-2.13.66-2.7 1.98-.56 1.31-.85 3.53-.85 6.65a43.81 43.81 0 0 0 .21 4.84l5.88-12.3a2.16 2.16 0 0 0-1.04-.91 3.8 3.8 0 0 0-1.5-.26Zm3.51 8.63c0-1.33-.03-2.46-.08-3.37l-5.55 11.47a2 2 0 0 0 .9.5c.36.1.77.14 1.22.14.82 0 1.49-.27 2-.83.52-.56.9-1.48 1.15-2.75.24-1.3.36-3 .36-5.16Z" fill="url(#c)"/><path d="m68.11 29.8-5.21-1.61 8.99-18.93h-10.6v-4.14h16.16v3.73l-9.34 20.96Z" fill="url(#d)"/><path d="M84.44 0c3.2 0 5.45.48 6.73 1.45 1.3.96 1.83 2.62 1.59 4.98l-.53 4.97c-.09.89.06 1.58.46 2.08s.96.85 1.7 1.06c.75.2 1.62.3 2.61.3v4.45c-.97 0-1.84.1-2.6.32-.75.2-1.32.54-1.71 1.04-.4.5-.55 1.2-.46 2.07l.53 4.95c.26 2.38-.26 4.05-1.57 5.01-1.3.97-3.55 1.45-6.75 1.45v-3.83c1.07 0 1.9-.15 2.49-.46.6-.29.84-.87.75-1.75l-.54-5.14c-.14-1.31 0-2.36.42-3.15a4.2 4.2 0 0 1 1.94-1.83c.87-.43 1.9-.73 3.06-.9-1.24-.2-2.3-.5-3.16-.91a3.96 3.96 0 0 1-1.88-1.81 5.8 5.8 0 0 1-.38-3.17l.54-5.14c.09-.88-.17-1.47-.77-1.76a5.53 5.53 0 0 0-2.47-.45v-3.83Z" fill="url(#e)"/><defs><linearGradient id="a" x1="-2.05" y1="36.755" x2="99.972" y2=".68" gradientUnits="userSpaceOnUse"><stop stop-color="#00C0FD"/><stop offset="1" stop-color="#E70FAA"/></linearGradient><linearGradient id="b" x1="-2.05" y1="36.755" x2="99.972" y2=".68" gradientUnits="userSpaceOnUse"><stop stop-color="#00C0FD"/><stop offset="1" stop-color="#E70FAA"/></linearGradient><linearGradient id="c" x1="-2.05" y1="36.755" x2="99.972" y2=".68" gradientUnits="userSpaceOnUse"><stop stop-color="#00C0FD"/><stop offset="1" stop-color="#E70FAA"/></linearGradient><linearGradient id="d" x1="-2.05" y1="36.755" x2="99.972" y2=".68" gradientUnits="userSpaceOnUse"><stop stop-color="#00C0FD"/><stop offset="1" stop-color="#E70FAA"/></linearGradient><linearGradient id="e" x1="-2.05" y1="36.755" x2="99.972" y2=".68" gradientUnits="userSpaceOnUse"><stop stop-color="#00C0FD"/><stop offset="1" stop-color="#E70FAA"/></linearGradient></defs></svg>