<svg xmlns="http://www.w3.org/2000/svg" xmlns:xlink="http://www.w3.org/1999/xlink" viewBox="0 0 750 500" style="enable-background:new 0 0 750 500" xml:space="preserve"><path style="fill:#ffffff00" d="M0 0h750v500h-750z"/><path style="fill:none;stroke:#bac6fc;stroke-width:2.126;stroke-miterlimit:10" d="m674.6 130.86 3.76-20.15a3.78 3.78 0 0 0-3.02-4.42l-4.96-.92a3.78 3.78 0 0 1-3.05-3.25c-.37-2.97-.99-5.9-1.85-8.78a3.78 3.78 0 0 1 1.48-4.2l4.16-2.85a3.78 3.78 0 0 0 .98-5.26l-11.58-16.9a3.78 3.78 0 0 0-5.26-1l-4.16 2.86a3.78 3.78 0 0 1-4.45-.14 54.52 54.52 0 0 0-7.52-4.9 3.78 3.78 0 0 1-1.92-4.02l.92-4.95a3.78 3.78 0 0 0-3.02-4.42l-20.15-3.76a3.78 3.78 0 0 0-4.41 3.02l-.93 4.95a3.78 3.78 0 0 1-3.25 3.05c-2.97.38-5.9 1-8.77 1.85a3.78 3.78 0 0 1-4.2-1.48l-2.85-4.15a3.78 3.78 0 0 0-5.26-.99l-16.91 11.59a3.78 3.78 0 0 0-.99 5.26l2.85 4.15a3.78 3.78 0 0 1-.14 4.46 54.41 54.41 0 0 0-4.9 7.51 3.78 3.78 0 0 1-4.01 1.93l-4.96-.93a3.78 3.78 0 0 0-4.4 3.03l-3.78 20.14a3.78 3.78 0 0 0 3.03 4.42l4.95.92a3.78 3.78 0 0 1 3.05 3.25c.37 2.97 1 5.9 1.85 8.78a3.78 3.78 0 0 1-1.48 4.2l-4.16 2.85a3.78 3.78 0 0 0-.98 5.26l11.59 16.91a3.78 3.78 0 0 0 5.25.98l4.16-2.84a3.78 3.78 0 0 1 4.45.14 54.54 54.54 0 0 0 7.52 4.9 3.78 3.78 0 0 1 1.92 4.01l-.92 4.95a3.78 3.78 0 0 0 3.02 4.42l20.15 3.77a3.78 3.78 0 0 0 4.41-3.03l.93-4.95a3.78 3.78 0 0 1 3.25-3.05c2.97-.38 5.9-1 8.77-1.85a3.78 3.78 0 0 1 4.2 1.48l2.86 4.15a3.78 3.78 0 0 0 5.25.99l16.92-11.59a3.78 3.78 0 0 0 .98-5.25l-2.85-4.16a3.78 3.78 0 0 1 .14-4.46 54.65 54.65 0 0 0 4.9-7.51 3.78 3.78 0 0 1 4.02-1.93l4.95.93a3.78 3.78 0 0 0 4.41-3.02zm-41.55 7.4a35.2 35.2 0 0 1-48.93-9.15 35.2 35.2 0 0 1 9.15-48.93 35.2 35.2 0 0 1 48.93 9.15 35.2 35.2 0 0 1-9.15 48.93z"/><path style="fill:#6252d7" d="M203.67 101.22a20.88 20.88 0 0 0-17.67-19.56 29.6 29.6 0 0 0-57.35-5.5 24.8 24.8 0 0 0-35.38 24.92h-2.08a15.15 15.15 0 0 0-14.85 18.08h140.17a15.13 15.13 0 0 0-12.85-17.93z"/><path style="fill:#0f1e36" d="M462.1 448.75h-143.73l13.82-52.05h116.1z"/><path style="fill:#6252d7" d="M496.97 451.09h-213.47l1.18-2.7a19.6 19.6 0 0 1 17.97-11.76h175.18a19.6 19.6 0 0 1 17.97 11.77l1.17 2.69z"/><path style="fill:#dbdfff" d="M608.6 404.43h-436.31a11.67 11.67 0 0 1-11.65-11.67l.78-299.08a11.75 11.75 0 0 1 11.71-11.67h436.32c6.42 0 11.67 5.25 11.65 11.67l-.79 299.08a11.75 11.75 0 0 1-11.7 11.67z"/><path style="fill:#6252d7" d="M608.93 404.43h-436.32a11.67 11.67 0 0 1-11.65-11.67l.13-49.28h459.68l-.13 49.28a11.74 11.74 0 0 1-11.71 11.67z"/><defs><path id="a" d="m176.04 329.34.61-232h429.04l-.6 232z"/></defs><clipPath id="b"><use xlink:href="#a" style="overflow:visible"/></clipPath><path style="clip-path:url(#b);fill:#fff" d="m176.04 329.34.61-232h429.04l-.6 232z"/><path style="fill:#ff6238" d="M324.45 306.71h-36.43a6.33 6.33 0 0 1-6.33-6.33v-36.43c0-3.5 2.83-6.34 6.33-6.34h36.43c3.5 0 6.33 2.84 6.33 6.34v36.43c0 3.5-2.83 6.33-6.33 6.33z"/><path style="fill:#6252d7" d="M265.63 306.71h-36.43a6.33 6.33 0 0 1-6.33-6.33v-36.43c0-3.5 2.83-6.34 6.33-6.34h36.43c3.5 0 6.33 2.84 6.33 6.34v36.43c0 3.5-2.83 6.33-6.33 6.33z"/><path style="fill:#fff" d="M319.82 272.7a9.28 9.28 0 0 0-13.12 0l-.46.46-.33-.33a9.4 9.4 0 0 0-13.07-.31 9.28 9.28 0 0 0-.18 13.3l.46.46 10.81 10.81a3.26 3.26 0 0 0 4.61 0l11.28-11.27a9.28 9.28 0 0 0 0-13.12zm-80.25 2.4h-7.38c-.7 0-1.28.56-1.28 1.27v15.89c0 .7.57 1.27 1.28 1.27h7.38c.7 0 1.28-.57 1.28-1.27v-15.89c0-.7-.57-1.28-1.28-1.28zm24.35 6.9a2.3 2.3 0 0 0-2.3-2.3 2.3 2.3 0 1 0 0-4.6h-9.62c.42-3.35.1-7.26.1-7.26 0-1.22-1-2.2-2.22-2.2h-.07c-1.14 0-2.08.86-2.2 2-.16 1.37-.47 5.7-1.92 6.35a7.02 7.02 0 0 0-2.46 1.65c-.11.11-.2.24-.29.38-.34.56-.26.94-.26.94v14.71c0 1.03.84 1.87 1.87 1.87h16.44v-.02h.63a2.3 2.3 0 1 0 0-4.6 2.3 2.3 0 1 0 0-4.61 2.3 2.3 0 0 0 2.3-2.3z"/><path style="fill:#feb8a6" d="M176.17 372.71c1-5.1 1.59-15.07 2.1-24.73-7.1.1-14.19.15-21.28.16 1.36 10.93 3.17 26.3 2.01 38.74-1.47 15.79 2.1 35.38 3.58 47.04 1.47 11.66 0 16.52 0 16.52h13.32s-3.67-3.89-5.14-5.83c-1.47-1.95-2.2-14.25-1.84-19.1.37-4.87 5.41-43.4 7.25-52.8z"/><path style="fill:#feb8a6" d="M190.37 444.6c-1.47-1.94-2.2-14.24-1.84-19.1.37-4.86 3.67-43.4 5.5-52.78 1.29-6.54.53-16.21.32-24.87-3.43 0-6.86 0-10.3.06-3.6.06-7.21.1-10.83.14 1.62 10.92 4.14 26.32 3.65 38.83-.79 20.48 3.85 35.38 5.32 47.04 1.46 11.66 0 16.52 0 16.52l4.9-1.37 9.56.49 5.8.88s-10.61-3.89-12.08-5.83z"/><path style="fill:#2603c2" d="M193.49 446.24s-2.25 1.7-5.17 1.9c-3.9.25-5.52-2.66-5.52-2.66s-1.49 3.98-.61 4.96c.7.78 6.1.37 11.3.64 2.57.13 7.22.14 9.17-.2.87-.15-.64-1.86-1.47-2.15-5.26-1.8-7.7-2.5-7.7-2.5zm-20.97 0s-2 1.7-4.58 1.9c-3.45.25-4.9-2.66-4.9-2.66s-1.3 3.98-.53 4.96c.62.78 5.4.37 10.01.64 2.28.13 6.4.14 8.13-.2.77-.15-.56-1.86-1.3-2.15-4.67-1.8-6.83-2.5-6.83-2.5z"/><path style="fill:#feb8a6" d="M204.9 211.14c2.26-1.61 2.56-6.82 4-7.63 1.45-.8 4.95-1.72 5.72-2.78.77-1.06 1 1.56 1.16 2.8.16 1.24-1.14 1.04-1.26 2.14-.12 1.1.55 1.74-.69 2.47-1.23.74-5.85 6.37-5.85 6.37l-2.06-2.57-1.02-.8z"/><path style="fill:#c68c8f" d="M216.7 204.52c-.56.15-3.4.77-4.6 1.66-1.19.9-2.84 2.4-2.84 2.4s.3-2.6.68-3.38c.77-1.56 3.9-4.47 5.13-4.7 1.23-.24 3.94 1.23 3.94 1.23l-2.3 2.8z"/><path style="fill:#dbdfff" d="M332.81 235.08h-116.13a5.8 5.8 0 0 1-5.8-5.8v-106.74a5.8 5.8 0 0 1 5.8-5.8h116.13c3.2 0 5.8 2.6 5.8 5.8v106.74c0 3.2-2.6 5.8-5.8 5.8z"/><text transform="translate(229.24 194.82)" style="fill:#fff;font-family:'FredokaOne-Regular';font-size:28.251px">WWW</text><path style="fill:#6252d7" d="M338.62 132.6h-127.75v-10.06c0-3.2 2.6-5.8 5.8-5.8h116.14a5.8 5.8 0 0 1 5.8 5.8v10.06z"/><path style="fill:#fff" d="M306.23 125.2a3.64 3.64 0 1 1-7.28 0 3.64 3.64 0 0 1 7.28 0z"/><path style="fill:#e8f4ff" d="M318.72 125.2a3.64 3.64 0 1 1-7.28 0 3.64 3.64 0 0 1 7.28 0z"/><path style="fill:#cedffd" d="M331.21 125.2a3.64 3.64 0 1 1-7.28 0 3.64 3.64 0 0 1 7.28 0z"/><path style="fill:#feb8a6" d="M182.5 227.83c2.2-1.08 4.71-2.8 10.3-7.25 3.05-2.43 10.57-8.07 12.1-9.44 1.1 1.01 1.18-.05 2.2.94.63.6 1.26 1.2 1.9 1.78-2.67 3.68-13.53 16.6-20.09 22.12-4.8 4.04-10.07 2.95-13.85 3.21-3.78.27-12.8-.45-12.8-.45l4.76-10.35c-.19-.52 11.14 1.58 15.49-.56z"/><path style="fill:#ff6238" d="M205.17 210.9s2.88 2.38 3.43 6.63c0 0-12.58 16.87-20.3 21.86-6.8 4.42-16.28 24.9-22.8 20.72-9.19-5.87-11.14-21.47-3.25-25.04 3.35-1.52 21.18-8.01 21.18-8.01s6.22-5.45 12.2-9.3c4.8-3.1 9.54-6.87 9.54-6.87z"/><path style="fill:#feb8a6" d="M207.1 210.26c.77-1.17 1.4-2.41 1.8-3.75l.1-.05c.42.39.78.7.92.81.43.36 3.91.88 3.91.88s2.4-.79 3.18-1.02c1.23-.36 1.88.58 1.62 1.09-.27.51-3.24 2.42-4.18 2.66-.72.18-1.94 1-2.64 1.44-.7.43-1.91.91-2.18 1.08-.36.22-.7.5-1 .8-.47-1.34-1.04-2.66-1.53-3.94zm-10.47-.51c-.2.84-.4 6.74-1.92 8.16-1.53 1.42-4.71-2.23-5.3-.76-.6 1.46 2.08 10.84 2.08 10.84l-16.07 1.53.04-13.32s-1.36-5.25.17-12.38c1.53-7.13 14.25-12.34 14.25-12.34.57-.4 1.2-3.24 2.27-2.25 1.66 1.54 2.58 7.1 3.22 9.86.65 2.78 1.47 9.81 1.26 10.66z"/><path style="fill:#0f1e36" d="M158.7 359.55c-.5-8.41-3.8-29.8-3.8-39.63-.02-14.23 5.13-18.27 5.13-18.27l45.17 1.2c7.28 16.98.17 50.86 1.42 56.23-13.24 7.42-42.6 2.91-47.93.47z"/><path style="fill:#ff6238" d="M203.65 241.03c2.51 6.59-2.92 20.98-3.18 28.03-.31 8.64 5.88 31.26 7.89 33.68 0 0-5.72 7.07-24.97 7.17-19.24.11-26.4-4.9-26.4-4.9s4.86-17.95 4.3-28.16c-.55-10.2-2.1-29.52.43-38.9.8-3 4.06-10.17 4.06-10.17l22.59-.4s13.45 8.86 15.28 13.65z"/><path style="fill:#feb8a6" d="M268.45 236.18c-.4-.39-.77.13-1.82.76-1.05.62-3.63 2.2-4.03 2.36-.4.15 3-2.26 3.91-2.89.9-.63 2.12-1.7 2.65-2.47.53-.77.04-1.48-.63-.98-.75.57-3.2 2.24-3.76 2.64a24.2 24.2 0 0 1-3.29 1.77c.8-.54 5.29-3.84 6.26-4.59.96-.75 1.05-1.34.83-1.66-.31-.45-1.4.13-2.6.98a25.4 25.4 0 0 1-2.92 1.89c-.89.46-2.65 1.45-2.4 1.19.3-.32 3.92-2.77 4.7-3.46.8-.7 1.02-1.34.65-1.63-.36-.3-.67-.17-1.67.4-1 .58-4.04 3.08-5.53 3.54-.67.2-1.7.5-2.55.83-.27.1-6.26.21-6.26.21-.02.78-.68 1.87-1.26 2.46-.2.2-6.86 3.28-6.86 3.28l2.56 6.54s6.45-3.57 8.2-3.38c1.73.19 3.09.06 4.4-.37 1.3-.43 2.38-1.26 5-2.44.97-.6 3.46-1.88 4.73-2.96.65-.56 2.08-1.63 1.69-2.02z"/><path style="fill:#ff6238" d="M247.47 238.14s1.13 3.9.27 8.1c0 0-17.48 12.21-25.6 12.23-8.11.02-28.7-3.06-32.8-4.79-4.1-1.72-8.17-4.95-6.05-12.4 2.12-7.44 8.07-6.07 11.54-4.82 3.46 1.25 14.7 6.55 18 7.53 3.32.98 8.71 1.9 8.71 1.9s7.22-1.58 14.12-3.27c5.56-1.37 11.8-4.48 11.8-4.48z"/><path style="fill:#0f1e36" d="M163.36 203.5c-.15-8.46 3.11-15.28 11.77-16.36a20.38 20.38 0 0 1 8.72-2.22c7.76-.02 10.19 3.95 10.84 7.13.06.29 1.46 4.05-1.72 6.8 0 0 1.38 21.04 2.66 23.65 1.67 3.43 5.07 10.99-2.66 19.18-16.02 17-34.26 6.94-38.15 1.42-11.9-16.89 8.85-22.2 8.54-39.6z"/><path style="fill:none;stroke:#0f1e36;stroke-miterlimit:10" d="M678.23 451.09h-600.96"/><path style="fill:#fff" d="M624.61 144.59h-258.97a13.2 13.2 0 0 1 0-26.41h258.97a13.2 13.2 0 0 1 0 26.41z"/><path style="fill:#6252d7" d="M624.61 118.18h-47.92a13.2 13.2 0 0 1 0 26.41h47.92a13.2 13.2 0 0 0 0-26.41z"/><path style="fill:none;stroke:#6252d7;stroke-width:2.126;stroke-miterlimit:10" d="M624.61 144.59h-258.97a13.2 13.2 0 0 1 0-26.41h258.97a13.2 13.2 0 0 1 0 26.41z"/><path style="fill:#fff" d="m618.58 136.52-2.86-2.86a6.51 6.51 0 1 0-1.97 1.97l2.86 2.86a1.4 1.4 0 1 0 1.97-1.97zm-11.34-3.38a4.23 4.23 0 1 1 5.99-5.99 4.23 4.23 0 0 1-5.99 6z"/><path style="fill:#b7c2fb" d="M572.62 179.12h-203.03a2.21 2.21 0 0 1-2.21-2.21v-3.1a2.2 2.2 0 0 1 2.21-2.2h203.03c1.22 0 2.2.98 2.2 2.2v3.1a2.2 2.2 0 0 1-2.2 2.2z"/><path style="fill:#dbdfff" d="M571.55 167.46h-215.39c-1.2 0-2.17-.97-2.17-2.17v-6.42c0-1.2.97-2.17 2.17-2.17h215.4c1.19 0 2.16.97 2.16 2.17v6.42c0 1.2-.97 2.17-2.17 2.17z"/><path style="fill:#ff6238" d="M677.1 272.72h-159.51c-1 0-1.81-.81-1.81-1.81v-78.72c0-1 .8-1.82 1.8-1.82h159.52c1 0 1.81.81 1.81 1.82v78.72c0 1-.8 1.81-1.8 1.81z"/><path style="fill:#dbdfff" d="M503.5 272.72h-147.7c-1 0-1.8-.8-1.8-1.8v-78.75c0-.99.8-1.8 1.8-1.8h147.7c1 0 1.8.8 1.8 1.8v78.75c0 1-.8 1.8-1.8 1.8z"/><path style="fill:#b7c2fb" d="M356.16 279.58h215.4c1.19 0 2.16.97 2.16 2.17v20.63c0 1.2-.97 2.16-2.17 2.16h-215.39c-1.2 0-2.17-.97-2.17-2.16v-20.63c0-1.2.97-2.17 2.17-2.17zm4.28-100.46h-4.24a2.2 2.2 0 0 1-2.2-2.21v-3.1a2.2 2.2 0 0 1 2.2-2.2h4.24a2.2 2.2 0 0 1 2.21 2.2v3.1a2.2 2.2 0 0 1-2.2 2.2z"/><path style="fill:#fff" d="M623.55 434.72a63.9 63.9 0 0 1-40.31-20.4 63.9 63.9 0 0 1-16.85-43.29v-49.06a134.11 134.11 0 0 0 57.16-20.82 134.1 134.1 0 0 0 57.16 20.82v49.06a63.9 63.9 0 0 1-16.85 43.3 63.9 63.9 0 0 1-40.31 20.4z"/><path style="fill:#4db4a7" d="M623.55 426.75a55.97 55.97 0 0 1-33.91-17.68 55.89 55.89 0 0 1-14.74-37.86v-41.81a156.6 156.6 0 0 0 48.65-18.27 156.52 156.52 0 0 0 48.65 18.27v41.81a55.98 55.98 0 0 1-48.65 55.54z"/><path style="fill:#fff" d="M640.51 364.43h-32.14v-16.07c0-8.86 7.21-16.07 16.07-16.07s16.07 7.2 16.07 16.07v16.07zm-27.02-5.12h21.9v-10.95a10.96 10.96 0 0 0-21.9 0v10.95z"/><path style="fill:#fff" d="M643.51 356.3h-38.64a3.98 3.98 0 0 0-3.98 3.97v22.45c0 5.83 4.73 10.57 10.57 10.57h25.46c5.84 0 10.57-4.74 10.57-10.58v-22.44c0-2.2-1.78-3.98-3.98-3.98zm-16.77 19v7.44c0 1.24-1 2.24-2.23 2.24h-.64c-1.23 0-2.23-1-2.23-2.24v-7.43a5.66 5.66 0 1 1 5.1 0z"/><circle transform="rotate(-50.994 594.506 231.535)" style="fill:#fff" cx="594.481" cy="231.548" r="24.506"/><path style="fill:#ff6238" d="M588.63 225.48v13.56a2.26 2.26 0 0 0 3.4 1.97l11.75-6.79a2.26 2.26 0 0 0 0-3.92l-11.75-6.78a2.27 2.27 0 0 0-3.4 1.96z"/><path style="fill:#6ccb71" d="M103.1 354.7c2.36 4.76 2.45 11.85-4.2 12.6-6.65.76-9.93-7.05-10.94-15.88-1-8.82-4.28-13.61-12.1-21.43-7.81-7.82-15.13-21.43-4.54-24.46 10.6-3.03 19.42 13.11 22.7 24.46 3.28 11.35 5.25 16.98 9.08 24.7z"/><path style="fill:none;stroke:#0f1e36;stroke-miterlimit:10" d="M102.01 384.6s0-26.37-15.53-52.75"/><path style="fill:#6ccb71" d="M113.18 358.86c-1.74 4.37-3.2 13.88 4.06 14.38 5.89.4 9.47-4.4 9.73-12.24.26-7.83 1.56-14.8 7.89-22.23 6.32-7.43 12.02-28.19 2.5-30.1-9.54-1.9-16.4 21.18-18.48 31.4s-2.88 11.73-5.7 18.79z"/><path style="fill:none;stroke:#0f1e36;stroke-miterlimit:10" d="M115.73 388.67s-1-12.47 3.1-28.7c1.5-5.92 7.75-21.22 10.82-32.33"/><path style="fill:#6ccb71" d="M115.88 342.55c1.43 5.13 1.9 16.03-6.34 15.69-6.69-.28-10.13-6.12-9.46-14.98.68-8.86.07-16.86-6.13-26.01-6.2-9.15-10.07-33.24.9-34.22 10.97-.98 15.85 25.88 16.93 37.64s1.8 13.57 4.1 21.88z"/><path style="fill:none;stroke:#0f1e36;stroke-miterlimit:10" d="M107.1 404.43s4.54-56.78-5.92-99.08"/><path style="fill:#b7c2fb" d="M92.35 382.15h29.52v68.3h-29.52z"/><path style="fill:#dbdfff" d="M77.86 190.09h62.37c1.36 0 2.46-1.1 2.46-2.47v-41.7c0-1.35-1.1-2.45-2.46-2.45h-62.37a2.46 2.46 0 0 0-2.46 2.46v41.7c0 1.35 1.1 2.46 2.46 2.46z"/><path style="fill:#b7c2fb" d="M75.4 150.2h67.3v-4.27c0-1.36-1.1-2.47-2.47-2.47h-62.37a2.46 2.46 0 0 0-2.46 2.46v4.27z"/><text transform="translate(91.558 176.766)" style="fill:#6252d7;font-family:'Roboto-BoldItalic';font-size:24.8753px">&lt;/&gt;</text><path style="fill:#bac6fc" d="M142.7 244.59v-7.65a3.51 3.51 0 0 0-3.52-3.51c-1.47 0-2.8-.91-3.29-2.3-.3-.86-.66-1.71-1.05-2.54a3.49 3.49 0 0 1 .7-3.95 3.51 3.51 0 0 0 0-4.97l-5.4-5.4a3.51 3.51 0 0 0-4.97 0 3.49 3.49 0 0 1-3.95.7c-.83-.4-1.68-.74-2.54-1.05a3.49 3.49 0 0 1-2.3-3.3 3.51 3.51 0 0 0-3.51-3.5h-7.65a3.51 3.51 0 0 0-3.5 3.5 3.5 3.5 0 0 1-2.3 3.3c-.87.3-1.72.66-2.55 1.05-1.33.63-2.9.33-3.94-.7a3.51 3.51 0 0 0-4.97 0l-5.4 5.4a3.51 3.51 0 0 0 0 4.97 3.49 3.49 0 0 1 .7 3.95c-.4.83-.75 1.68-1.06 2.54a3.49 3.49 0 0 1-3.29 2.3 3.51 3.51 0 0 0-3.51 3.5v7.65a3.51 3.51 0 0 0 3.51 3.52c1.47 0 2.8.9 3.3 2.29.3.86.65 1.71 1.05 2.55a3.5 3.5 0 0 1-.7 3.94 3.51 3.51 0 0 0 0 4.97l5.4 5.4a3.51 3.51 0 0 0 4.97 0 3.49 3.49 0 0 1 3.94-.7c.83.4 1.68.75 2.55 1.06a3.5 3.5 0 0 1 2.3 3.29 3.51 3.51 0 0 0 3.5 3.5h7.65a3.51 3.51 0 0 0 3.51-3.5c0-1.47.91-2.8 2.3-3.3.86-.3 1.71-.66 2.54-1.05a3.49 3.49 0 0 1 3.95.7 3.51 3.51 0 0 0 4.97 0l5.4-5.4a3.51 3.51 0 0 0 0-4.97 3.49 3.49 0 0 1-.7-3.95c.39-.83.74-1.68 1.05-2.54a3.49 3.49 0 0 1 3.3-2.3 3.5 3.5 0 0 0 3.5-3.5zm-23.64 6.32a14.16 14.16 0 0 1-20.02 0 14.16 14.16 0 0 1 0-20.02 14.16 14.16 0 0 1 20.02 0 14.15 14.15 0 0 1 0 20.02z"/></svg>